<svg preserveAspectRatio="none" width="100%" height="100%" overflow="visible" style="display: block;" viewBox="0 0 31.9266 32" fill="none" xmlns="http://www.w3.org/2000/svg">
<g id="logomark">
<path id="Vector" fill-rule="evenodd" clip-rule="evenodd" d="M15.9633 0C13.8818 1.59684e-07 12.0669 1.16454 10.8025 2.90703C10.7257 3.01299 10.6503 3.12154 10.5773 3.23203C10.5007 3.21646 10.4244 3.20022 10.3481 3.18672C8.23068 2.81223 6.12918 3.2295 4.67519 4.68672C3.2215 6.14407 2.80499 8.25048 3.17863 10.3726C3.19211 10.4492 3.20908 10.5256 3.22462 10.6023C3.11443 10.6755 3.00603 10.7503 2.90036 10.8274C1.16192 12.0946 9.06285e-05 13.9138 0 16C9.0638e-05 18.0862 1.16192 19.9054 2.90036 21.1726C3.006 21.2497 3.11447 21.3245 3.22462 21.3977C3.20902 21.4746 3.19215 21.5514 3.17863 21.6282C2.80512 23.7503 3.22206 25.8568 4.67597 27.3141C6.12986 28.771 8.231 29.1884 10.3481 28.8141C10.4245 28.8006 10.5006 28.7835 10.5773 28.768C10.6504 28.8785 10.7256 28.987 10.8025 29.093C12.0669 30.8354 13.8818 32 15.9633 32C18.0448 32 19.8597 30.8354 21.1241 29.093C21.2011 28.9868 21.2769 28.8786 21.3501 28.768C21.4265 28.7835 21.5024 28.8006 21.5786 28.8141C23.6958 29.1884 25.7967 28.7704 27.2506 27.3133C28.7043 25.8561 29.1207 23.7502 28.7472 21.6282C28.7337 21.5517 28.7175 21.4751 28.702 21.3984C28.8122 21.3252 28.9205 21.2498 29.0262 21.1726C30.7647 19.9054 31.9265 18.0862 31.9266 16C31.9265 13.9138 30.7647 12.0946 29.0262 10.8274C28.9203 10.7501 28.8117 10.675 28.7012 10.6016C28.7167 10.5249 28.7329 10.4483 28.7464 10.3718C29.12 8.24968 28.7044 6.14327 27.2506 4.68594C25.7966 3.22879 23.6951 2.81221 21.5778 3.18672C21.5019 3.20014 21.4263 3.21657 21.3501 3.23203C21.277 3.12142 21.201 3.0131 21.1241 2.90703C19.8597 1.16454 18.0448 2.83868e-07 15.9633 0ZM15.9633 25.9484C17.1325 26.9946 18.4225 27.7841 19.7281 28.289C18.6949 29.6445 17.3614 30.4 15.9633 30.4C14.5652 30.4 13.2317 29.6445 12.1985 28.289C13.5042 27.7841 14.7942 26.9946 15.9633 25.9484ZM27.2218 22.2062C27.441 23.8454 27.0501 25.2516 26.122 26.182C25.1938 27.1122 23.7913 27.5032 22.1561 27.2836C22.6965 26.0566 23.0345 24.6591 23.1226 23.175C24.6034 23.0866 25.9976 22.7481 27.2218 22.2062ZM4.70559 22.2062C5.92982 22.748 7.32388 23.0866 8.80472 23.175C8.89292 24.6592 9.23078 26.0566 9.7713 27.2836C8.13594 27.5034 6.73302 27.113 5.80462 26.1828C4.87622 25.2522 4.48624 23.8457 4.70559 22.2062ZM21.1373 19.3961C21.332 20.0767 21.4645 20.8058 21.52 21.5695C21.0431 21.5346 20.5798 21.469 20.1334 21.3774C19.9402 21.8776 19.7086 22.374 19.4412 22.8617C20.1085 23.0201 20.8057 23.1261 21.524 23.1718C21.4307 24.5525 21.0902 25.8218 20.5745 26.8977C19.3967 26.4849 18.195 25.7866 17.092 24.8141C17.6375 24.1968 18.1114 23.5457 18.5114 22.8774C18.8405 22.3273 19.1204 21.7654 19.3462 21.2H19.4038C19.3867 21.1952 19.3695 21.1908 19.3524 21.1859C19.5314 20.735 19.6753 20.2813 19.7858 19.8305C20.2354 19.7197 20.6876 19.5756 21.1373 19.3961ZM20.5745 5.10156C21.0904 6.17746 21.4307 7.44724 21.524 8.82816C20.541 8.89072 19.5973 9.06456 18.7163 9.3344C18.1188 9.51736 17.5506 9.74496 17.0187 10.0117C16.6685 10.1876 16.3342 10.3803 16.0179 10.589C16.1399 13.4954 18.4628 15.8234 21.3626 15.9453C21.5963 15.5898 21.8106 15.212 22.0025 14.8141C22.5565 15.147 23.1014 15.543 23.6246 16C23.3152 16.2702 22.9965 16.5169 22.6744 16.7438C22.9118 17.2242 23.1193 17.7304 23.2933 18.2578C23.7959 17.9246 24.2865 17.5486 24.7572 17.1305C25.7276 18.2359 26.4247 19.4406 26.8367 20.6211C25.7634 21.1382 24.4971 21.4791 23.1195 21.5726C23.0666 20.7391 22.9337 19.9334 22.7313 19.1703C22.5342 18.4274 22.27 17.725 21.9479 17.0766C21.7701 16.7186 21.5747 16.3767 21.3626 16.0539C18.463 16.1758 16.1403 18.5041 16.0179 21.4102C16.3726 21.6444 16.7493 21.8598 17.1465 22.0523C16.8143 22.6078 16.4195 23.1543 15.9633 23.6789C15.6935 23.3686 15.4477 23.0487 15.2212 22.7258C14.7418 22.9638 14.237 23.1716 13.7106 23.3461C14.0433 23.85 14.4181 24.3421 14.8354 24.8141C13.7325 25.7866 12.5305 26.4846 11.3528 26.8977C10.8371 25.8218 10.4967 24.5526 10.4034 23.1718C11.3974 23.1085 12.3512 22.9314 13.2407 22.6562C13.8143 22.4789 14.3607 22.2603 14.8736 22.0054C15.2367 21.825 15.5827 21.6259 15.9095 21.4102C15.7871 18.5046 13.4644 16.1766 10.5656 16.0539C10.3317 16.4096 10.117 16.7877 9.92486 17.1859C9.37046 16.853 8.82483 16.4574 8.30124 16C8.61116 15.7293 8.93027 15.482 9.25297 15.2547C9.01567 14.7743 8.80799 14.2686 8.63407 13.7414C8.13123 14.0746 7.64036 14.4506 7.16945 14.8687C6.19944 13.7634 5.50263 12.5592 5.09064 11.3789C6.16405 10.8619 7.43025 10.52 8.80791 10.4266C8.87033 11.4119 9.04361 12.3582 9.31299 13.2414C9.4897 13.8212 9.70936 14.373 9.96461 14.8914C10.1467 15.261 10.3473 15.613 10.5656 15.9453C13.4646 15.8226 15.7875 13.495 15.9095 10.589C15.5546 10.3546 15.1775 10.1394 14.7801 9.94688C15.1122 9.39144 15.5072 8.84496 15.9633 8.32032C16.2333 8.6308 16.4802 8.95032 16.7069 9.27344C17.1862 9.03568 17.6907 8.82744 18.2167 8.65312C17.8841 8.14904 17.5085 7.65718 17.0912 7.18516C18.1943 6.21261 19.3966 5.51443 20.5745 5.10156ZM7.16868 17.1305C7.76826 17.663 8.39957 18.1277 9.04792 18.5218C9.6139 18.8661 10.1926 19.157 10.7752 19.3906V19.4484C10.7799 19.4316 10.7845 19.4145 10.7893 19.3977C11.239 19.577 11.6913 19.7205 12.1408 19.8313C12.2514 20.2818 12.3953 20.7352 12.5742 21.1859C11.8955 21.3809 11.1689 21.5138 10.4074 21.5695C10.4422 21.0912 10.5077 20.6266 10.5991 20.1789C10.0997 19.9851 9.60416 19.7534 9.11736 19.4851C8.95932 20.1539 8.85357 20.8528 8.80791 21.5726C7.4305 21.4792 6.1647 21.1379 5.09142 20.6211C5.50337 19.4408 6.19863 18.2358 7.16868 17.1305ZM28.2242 12.2258C29.5766 13.2613 30.3302 14.5986 30.3303 16C30.3302 17.401 29.5768 18.738 28.225 19.7734C27.7211 18.4646 26.9329 17.1712 25.8889 15.9992C26.9326 14.8274 27.7205 13.5344 28.2242 12.2258ZM3.70242 12.2266C4.20613 13.5351 4.99334 14.8282 6.03691 16C4.99327 17.1718 4.20544 18.4649 3.70165 19.7734C2.34982 18.738 1.59642 17.401 1.59633 16C1.59642 14.5988 2.35022 13.2621 3.70242 12.2266ZM23.1195 10.4266C24.4968 10.5201 25.7628 10.8621 26.836 11.3789C26.4238 12.559 25.7272 13.7635 24.7572 14.8687C24.162 14.3402 23.536 13.8775 22.8927 13.4851C22.3225 13.1374 21.7386 12.8448 21.1514 12.6094V12.5516C21.1466 12.5686 21.1422 12.5861 21.1373 12.6031C20.6879 12.4238 20.2359 12.2795 19.7865 12.1687C19.676 11.7181 19.5314 11.2649 19.3524 10.8141C20.0313 10.619 20.7583 10.4862 21.52 10.4305C21.4852 10.9085 21.4205 11.373 21.3291 11.8203C21.8285 12.0142 22.324 12.2466 22.8108 12.5149C22.9689 11.8459 23.0738 11.1466 23.1195 10.4266ZM11.3528 5.10234C12.5302 5.51537 13.732 6.213 14.8346 7.18516C14.3072 7.78176 13.8464 8.40976 13.455 9.05472C13.108 9.62624 12.8154 10.2114 12.5804 10.8H12.5251C12.5412 10.8046 12.5575 10.8087 12.5734 10.8133C12.3943 11.2642 12.2506 11.7179 12.1401 12.1687C11.6909 12.2794 11.2394 12.4239 10.7901 12.6031C10.5955 11.9226 10.4629 11.194 10.4074 10.4305C10.8845 10.4654 11.3482 10.5294 11.7947 10.6211C11.9881 10.1208 12.2194 9.6244 12.4869 9.13672C11.8195 8.97848 11.1218 8.87392 10.4034 8.82816C10.4967 7.4474 10.8371 6.17817 11.3528 5.10234ZM22.1553 4.71562C23.7908 4.49592 25.1937 4.88753 26.122 5.81797C27.05 6.74835 27.4408 8.15408 27.2218 9.79296C25.9977 9.2512 24.6034 8.91344 23.1226 8.82496C23.0344 7.34053 22.696 5.94278 22.1553 4.71562ZM5.80384 5.81797C6.7324 4.88739 8.1361 4.49556 9.7721 4.71562C9.23134 5.94283 8.893 7.34043 8.80472 8.82496C7.32404 8.91336 5.92973 9.25128 4.70559 9.79296C4.48657 8.15416 4.87594 6.74831 5.80384 5.81797ZM15.9633 1.6C17.3611 1.6 18.6949 2.35517 19.7281 3.71016C18.4225 4.21499 17.1325 5.00474 15.9633 6.05078C14.7943 5.00486 13.504 4.21581 12.1985 3.71094C13.2317 2.35564 14.5653 1.6 15.9633 1.6Z" fill="var(--fill-0, white)"/>
</g>
</svg>
