<svg preserveAspectRatio="none" width="100%" height="100%" overflow="visible" style="display: block;" viewBox="0 0 134.423 25.0554" fill="none" xmlns="http://www.w3.org/2000/svg">
<g id="logotype">
<path id="Vector" d="M32.1456 20.3547C32.8959 21.7645 34.3439 22.6523 36.2105 22.6523C38.0769 22.6522 39.5244 21.7644 40.2749 20.3547H43.0821C42.1538 23.1718 39.5756 25.0553 36.2105 25.0554C32.8452 25.0554 30.2668 23.1719 29.338 20.3547H32.1456ZM73.034 5.40784C77.3122 5.40784 80.3101 8.35744 80.3101 12.5906C80.3101 17.0697 76.9849 19.6102 73.4698 19.6102C71.2908 19.6101 69.4375 18.6266 68.4565 16.8789V25.0172H65.8681V12.618C65.8681 8.22088 68.8652 5.40784 73.034 5.40784ZM73.062 7.81096C70.3099 7.81096 68.4565 9.7776 68.4565 12.5086C68.4565 15.2397 70.3099 17.2062 73.062 17.2062C75.8412 17.2062 77.6937 15.2398 77.6937 12.5086C77.6937 9.77752 75.8412 7.81096 73.062 7.81096ZM20.7991 5.40784C25.0498 5.40784 28.0471 8.412 28.0472 12.5086C28.0472 16.6053 25.0499 19.6102 20.7991 19.6102C16.5483 19.6102 13.5508 16.6053 13.5508 12.5086C13.551 8.412 16.5483 5.40784 20.7991 5.40784ZM20.7991 7.81096C18.0198 7.81096 16.1668 9.77752 16.1668 12.5086C16.1668 15.2398 18.0197 17.2062 20.7991 17.2062C23.5784 17.2062 25.4314 15.2398 25.4314 12.5086C25.4313 9.77752 23.5784 7.81096 20.7991 7.81096ZM36.4974 5.41408H43.5378V7.7344H41.7228C42.8227 8.97056 43.4588 10.6234 43.4588 12.5086C43.4588 16.6052 40.4609 19.61 36.2105 19.6102C31.9597 19.6102 28.9623 16.6053 28.9623 12.5086C28.9625 8.412 31.9597 5.40784 36.2105 5.40784C36.3068 5.40784 36.4024 5.41104 36.4974 5.41408ZM36.2105 7.81096C33.4312 7.81096 31.5783 9.77752 31.5782 12.5086C31.5782 15.2398 33.4311 17.2062 36.2105 17.2062C38.9896 17.2061 40.8416 15.2396 40.8416 12.5086C40.8416 9.77768 38.9896 7.81112 36.2105 7.81096ZM51.6209 5.40784C55.8719 5.40784 58.869 8.412 58.869 12.5086C58.869 16.6053 55.8719 19.6102 51.6209 19.6102C47.3706 19.6102 44.3727 16.6053 44.3727 12.5086C44.3727 8.412 47.3706 5.40784 51.6209 5.40784ZM51.6209 7.81096C48.8416 7.81096 46.9891 9.77752 46.9891 12.5086C46.9891 15.2398 48.8416 17.2062 51.6209 17.2062C54.4009 17.2062 56.2534 15.2398 56.2534 12.5086C56.2534 9.77752 54.4001 7.81096 51.6209 7.81096ZM86.8535 5.40784C90.0693 5.40792 92.0583 7.238 92.1126 9.55936H89.5505C89.469 8.5216 88.516 7.75632 86.8814 7.75624C85.1645 7.75624 84.1836 8.57624 84.1836 9.64144C84.1836 10.9247 85.6003 11.0612 87.2621 11.2797C89.6055 11.5801 92.4662 12.0172 92.4669 15.1031C92.4669 17.8342 90.26 19.61 86.8814 19.6102C83.502 19.6102 81.3764 17.8072 81.295 15.3492H83.9106C83.9649 16.469 85.0009 17.261 86.8814 17.261C88.8425 17.2608 89.8506 16.4143 89.8506 15.3492C89.8506 14.0656 88.4338 13.9013 86.7449 13.6828C84.4015 13.3824 81.5672 12.9456 81.5672 9.85936C81.5672 7.21024 83.6384 5.40784 86.8535 5.40784ZM96.5647 12.8086C96.5647 15.731 98.173 17.2062 100.625 17.2062C103.078 17.2062 104.685 15.7309 104.685 12.8086V5.76248H107.274V12.8086C107.274 17.2877 104.604 19.6094 100.625 19.6094C96.6469 19.6094 93.9763 17.315 93.9763 12.8086V5.76248H96.5647V12.8086ZM2.77953 16.6875H12.78V19.2547H0V1.39297H2.77953V16.6875ZM63.4082 19.2547H60.8197V5.76248H63.4082V19.2547ZM124.323 5.40784C127.483 5.40784 129.882 7.31976 129.882 11.4438V19.2547H127.292V11.4438C127.292 8.93128 125.958 7.81104 124.077 7.81096C122.252 7.81096 120.889 8.98568 120.889 11.4438V19.2547H118.3V11.4438C118.3 8.98568 116.911 7.81096 115.085 7.81096C113.205 7.81096 111.87 8.9312 111.87 11.4438V19.2547H109.281V11.4438C109.281 7.31976 111.68 5.40784 114.84 5.40784C116.911 5.40792 118.655 6.33656 119.581 8.0844C120.507 6.33648 122.224 5.40784 124.323 5.40784ZM62.1 0C63.1352 0 63.899 0.764616 63.899 1.80234C63.899 2.84016 63.136 3.6328 62.1 3.6328C61.0647 3.63272 60.3017 2.84008 60.3017 1.80234C60.3017 0.764688 61.0647 0.000104 62.1 0ZM132.028 0.8C132.497 0.8 132.901 1.34058 133.098 2.12734C133.883 2.32423 134.423 2.72992 134.423 3.2C134.423 3.67 133.883 4.07496 133.098 4.27184C132.901 5.05904 132.497 5.6 132.028 5.6C131.559 5.6 131.155 5.05912 130.958 4.27184C130.173 4.07488 129.634 3.66992 129.634 3.2C129.634 2.73008 130.173 2.3243 130.958 2.12734C131.155 1.34048 131.559 0.8 132.028 0.8Z" fill="var(--fill-0, white)"/>
</g>
</svg>
