<svg preserveAspectRatio="none" width="100%" height="100%" overflow="visible" style="display: block;" viewBox="0 0 190.01 32" fill="none" xmlns="http://www.w3.org/2000/svg">
<g id="Logo">
<path id="&#60;Compound Path&#62;" fill-rule="evenodd" clip-rule="evenodd" d="M35.2797 14.9386C35.2815 15.2764 35.2709 15.6106 35.2477 15.9413C34.7357 23.6613 28.3544 29.7733 20.5278 29.864V29.8666H0.429131C0.159798 29.8666 -0.0428688 29.6186 0.00779779 29.352L2.8478 14.976C2.85313 14.9475 2.85313 14.9191 2.8478 14.8906L0.00779779 0.512003C-0.0428688 0.245337 0.159798 0 0.429131 0H20.5278V0.0106689C24.5811 0.0560022 28.2451 1.72 30.9091 4.384C33.3891 6.86133 34.9997 10.2133 35.2477 13.936C35.2709 14.2666 35.2815 14.6009 35.2797 14.9386ZM20.5278 2.50133C20.4691 2.49955 20.4104 2.49866 20.3518 2.49866C16.9171 2.49866 13.8078 3.89066 11.5571 6.14133C9.30645 8.39199 7.91445 11.504 7.91445 14.9386C7.91445 18.3733 9.30645 21.4826 11.5571 23.7333C13.8078 25.984 16.9171 27.3786 20.3518 27.3786C20.4104 27.3786 20.4691 27.3777 20.5278 27.376V2.50133Z" fill="var(--fill-0, #FAFAFA)"/>
<g id="&#60;Group&#62;">
<path id="&#60;Compound Path&#62;_2" fill-rule="evenodd" clip-rule="evenodd" d="M57.8021 25.2427V20.9733C56.9274 23.6693 54.4768 25.664 51.5008 25.664C47.1621 25.664 43.5914 21.952 43.5914 16.1413C43.5914 10.3307 47.3701 6.62135 51.3968 6.62135C54.3008 6.62135 56.7514 8.512 57.7328 11.136V1.35469H60.8128V25.2427H57.8021ZM46.8101 16.1413C46.8101 20.4827 49.2954 23.1093 52.4128 23.1093C55.1061 23.1093 57.8021 21.184 57.8021 16.5627V15.7227C57.8021 11.1013 55.1061 9.17601 52.4128 9.17601C49.2954 9.17601 46.8101 11.8027 46.8101 16.1413Z" fill="var(--fill-0, #FAFAFA)"/>
<path id="&#60;Compound Path&#62;_3" d="M65.6213 3.89067V7.04267L62.5413 5.46667V3.89067H65.6213ZM65.6213 7.04267V25.2426H62.5413V7.04267H65.6213Z" fill="var(--fill-0, #FAFAFA)"/>
<path id="&#60;Compound Path&#62;_4" d="M89.4184 3.89067V7.04267L86.3384 5.46667V3.89067H89.4184ZM89.4184 7.04267V25.2426H86.3384V7.04267H89.4184Z" fill="var(--fill-0, #FAFAFA)"/>
<path id="&#60;Compound Path&#62;_5" fill-rule="evenodd" clip-rule="evenodd" d="M70.2318 25.768C70.8264 28.008 73.1011 29.5146 75.9011 29.5146C79.6131 29.5146 81.5358 27.2026 81.5358 23.6693V20.448C80.5918 23.0373 78.1411 24.9626 75.2024 24.9626C71.1758 24.9626 67.3944 21.2533 67.3944 15.792C67.3944 10.3307 70.9651 6.62134 75.3064 6.62134C78.2478 6.62134 80.6958 8.58133 81.6078 11.2773V7.04267H84.6184V23.528C84.6184 28.7093 81.4318 32 75.9011 32C71.2451 32 67.8851 29.5146 67.4318 25.768H70.2318ZM70.6158 15.792C70.6158 19.784 73.1011 22.408 76.2158 22.408C78.9118 22.408 81.6078 20.4827 81.6078 16.2133V15.3733C81.6078 11.1013 78.9118 9.176 76.2158 9.176C73.1011 9.176 70.6158 11.8027 70.6158 15.792Z" fill="var(--fill-0, #FAFAFA)"/>
<path id="&#60;Compound Path&#62;_6" fill-rule="evenodd" clip-rule="evenodd" d="M99.7973 6.62134C104.768 6.62134 108.688 10.3307 108.688 16.1413C108.688 21.952 104.768 25.664 99.7973 25.664C94.8267 25.664 90.9067 21.952 90.9067 16.1413C90.9067 10.3307 94.8267 6.62134 99.7973 6.62134ZM99.7973 23.1093C102.877 23.1093 105.467 20.4133 105.467 16.1413C105.467 11.872 102.877 9.176 99.7973 9.176C96.7173 9.176 94.1254 11.872 94.1254 16.1413C94.1254 20.4133 96.7173 23.1093 99.7973 23.1093Z" fill="var(--fill-0, #FAFAFA)"/>
<path id="&#60;Compound Path&#62;_7" fill-rule="evenodd" clip-rule="evenodd" d="M124.208 25.2426V20.9733C123.333 23.6693 120.882 25.6639 117.906 25.6639C113.565 25.6639 109.994 21.9519 109.994 16.1413C109.994 10.3306 113.776 6.6213 117.802 6.6213C120.706 6.6213 123.157 8.51195 124.138 11.1359V1.35464H127.218V25.2426H124.208ZM113.216 16.1413C113.216 20.4826 115.701 23.1093 118.816 23.1093C121.512 23.1093 124.208 21.1839 124.208 16.5626V15.7226C124.208 11.1013 121.512 9.17596 118.816 9.17596C115.701 9.17596 113.216 11.8026 113.216 16.1413Z" fill="var(--fill-0, #FAFAFA)"/>
<path id="&#60;Compound Path&#62;_8" fill-rule="evenodd" clip-rule="evenodd" d="M137.117 6.62134C142.088 6.62134 146.008 10.3307 146.008 16.1413C146.008 21.952 142.088 25.664 137.117 25.664C132.146 25.664 128.226 21.952 128.226 16.1413C128.226 10.3307 132.146 6.62134 137.117 6.62134ZM137.117 23.1093C140.197 23.1093 142.789 20.4133 142.789 16.1413C142.789 11.872 140.197 9.176 137.117 9.176C134.037 9.176 131.448 11.872 131.448 16.1413C131.448 20.4133 134.037 23.1093 137.117 23.1093Z" fill="var(--fill-0, #FAFAFA)"/>
<path id="&#60;Compound Path&#62;_9" d="M150.234 7.04267V10.6827C151.144 8.26667 153.176 6.62134 156.325 6.62134C160.314 6.62134 162.381 9.38666 162.381 13.6213V25.2426H159.301V14.288C159.301 11.208 157.725 9.248 154.856 9.248C151.984 9.248 150.304 11.208 150.304 14.288V25.2426H147.224V7.04267H150.234Z" fill="var(--fill-0, #FAFAFA)"/>
<path id="&#60;Compound Path&#62;_10" fill-rule="evenodd" clip-rule="evenodd" d="M181.12 6.62134C186.09 6.62134 190.01 10.3307 190.01 16.1413C190.01 21.952 186.09 25.664 181.12 25.664C176.149 25.664 172.229 21.952 172.229 16.1413C172.229 10.3307 176.149 6.62134 181.12 6.62134ZM181.12 23.1093C184.2 23.1093 186.789 20.4133 186.789 16.1413C186.789 11.872 184.2 9.176 181.12 9.176C178.04 9.176 175.448 11.872 175.448 16.1413C175.448 20.4133 178.04 23.1093 181.12 23.1093Z" fill="var(--fill-0, #FAFAFA)"/>
<g id="&#60;Group&#62;_2">
<path id="&#60;Path&#62;" d="M171.594 22.7946V25.2453C170.928 25.3493 170.224 25.4186 169.176 25.4186C165.954 25.4186 164.341 23.8773 164.341 20.5146V7.75996H167.426V20.0986C167.426 22.1279 168.162 22.7946 170.192 22.7946H171.594Z" fill="var(--fill-0, #FAFAFA)"/>
<path id="&#60;Path&#62;_2" d="M171.594 5.20796V7.75996H167.426L164.341 6.11463V1.35464H167.426V5.20796H171.594Z" fill="var(--fill-0, #FAFAFA)"/>
</g>
</g>
</g>
</svg>
