<svg preserveAspectRatio="none" width="100%" height="100%" overflow="visible" style="display: block;" viewBox="0 0 149 149" fill="none" xmlns="http://www.w3.org/2000/svg">
<g id="&#60;Group&#62;">
<path id="&#60;Path&#62;" d="M59.9912 124.353C59.6973 124.034 59.3145 123.804 58.8427 123.664C58.3708 123.527 57.9238 123.515 57.5017 123.627C57.0795 123.738 56.7132 123.966 56.4028 124.309C56.0882 124.657 55.8482 125.112 55.6826 125.675C55.5171 126.234 55.4736 126.745 55.5523 127.209C55.6268 127.672 55.8109 128.063 56.1048 128.382C56.4028 128.705 56.7856 128.935 57.2533 129.071C57.7293 129.212 58.1763 129.226 58.5943 129.115C59.0124 129.003 59.3787 128.773 59.6932 128.426C60.0078 128.078 60.2478 127.623 60.4134 127.06C60.5748 126.501 60.6183 125.99 60.5438 125.526C60.4651 125.067 60.2809 124.676 59.9912 124.353Z" fill="var(--fill-0, white)"/>
<path id="&#60;Path&#62;_2" d="M67.584 125.83C67.1743 126.008 66.868 126.294 66.6652 126.687C66.4624 127.084 66.3341 127.567 66.2803 128.134C66.2265 128.709 66.2637 129.208 66.392 129.63C66.5203 130.052 66.7687 130.396 67.137 130.66C67.5095 130.921 68.0269 131.081 68.6891 131.138L69.7942 131.244L70.3033 125.75L69.1982 125.65C68.536 125.588 67.9979 125.648 67.584 125.83Z" fill="var(--fill-0, white)"/>
<path id="&#60;Path&#62;_3" d="M79.057 54.8754C78.9659 54.8713 78.8749 54.8692 78.7838 54.8692C73.3577 54.8692 68.4531 57.067 64.8958 60.6243C61.3446 64.1755 59.1468 69.0863 59.1468 74.5062C59.1468 79.9322 61.3446 84.8368 64.8958 88.3942C68.4531 91.9454 73.3577 94.1431 78.7838 94.1431C78.8749 94.1431 78.9659 94.1431 79.057 94.1431V54.8754Z" fill="var(--fill-0, white)"/>
<path id="&#60;Path&#62;_4" d="M36.0146 110.235C35.9318 109.809 35.7249 109.414 35.3937 109.049C35.0626 108.689 34.6881 108.447 34.27 108.323C33.852 108.199 33.4174 108.203 32.9663 108.335C32.5193 108.468 32.0806 108.733 31.6501 109.13C31.2155 109.523 30.9113 109.937 30.7375 110.372C30.5637 110.806 30.5202 111.237 30.6071 111.663C30.6899 112.094 30.8968 112.489 31.2279 112.849C31.559 113.213 31.9336 113.457 32.3516 113.582C32.7655 113.702 33.1981 113.695 33.6492 113.563C34.0962 113.426 34.5349 113.161 34.9654 112.768C35.3999 112.375 35.7042 111.961 35.878 111.527C36.0518 111.092 36.0974 110.662 36.0146 110.235Z" fill="var(--fill-0, white)"/>
<path id="&#60;Path&#62;_5" d="M86.4511 24.647C86.7449 24.9657 87.1298 25.1954 87.6058 25.3361C88.0735 25.4727 88.5184 25.4851 88.9406 25.3734C89.3628 25.2616 89.7311 25.0319 90.0457 24.6843C90.3602 24.3366 90.5982 23.8834 90.7596 23.3246C90.9252 22.7617 90.9707 22.2506 90.8962 21.7912C90.8176 21.3276 90.6313 20.9344 90.3375 20.6116C90.0436 20.2929 89.6607 20.0653 89.1889 19.9287C88.7171 19.7879 88.2701 19.7735 87.8479 19.8852C87.4299 19.997 87.0636 20.2267 86.749 20.5743C86.4345 20.922 86.1965 21.3773 86.0351 21.9402C85.8696 22.4989 85.824 23.0101 85.8985 23.4736C85.9771 23.933 86.1613 24.3242 86.4511 24.647Z" fill="var(--fill-0, white)"/>
<path id="&#60;Path&#62;_6" d="M40.2984 35.1577C40.8116 34.7396 41.1531 34.3216 41.3228 33.9036C41.4883 33.4855 41.5069 33.0654 41.3786 32.6433C41.2462 32.2211 40.9999 31.7886 40.6398 31.3457C40.2756 30.8987 39.9011 30.5676 39.5161 30.3524C39.1271 30.1372 38.7091 30.0668 38.2621 30.1413C37.8151 30.2117 37.3329 30.458 36.8155 30.8801L35.9526 31.5817L39.4354 35.8592L40.2984 35.1577Z" fill="var(--fill-0, white)"/>
<path id="&#60;Path&#62;_7" d="M80.7083 126.551C80.4599 126.153 80.1413 125.862 79.7522 125.675C79.3631 125.489 78.9203 125.421 78.4236 125.47C77.9394 125.52 77.5234 125.677 77.1757 125.942C76.8281 126.203 76.5735 126.555 76.4121 126.998C76.2548 127.436 76.2052 127.945 76.2631 128.525C76.3211 129.108 76.4742 129.599 76.7225 129.996C76.9667 130.394 77.2875 130.685 77.6848 130.872C78.078 131.062 78.5167 131.13 79.001 131.077C79.4935 131.027 79.9136 130.872 80.2613 130.611C80.6048 130.346 80.8573 129.994 81.0187 129.555C81.176 129.117 81.2256 128.606 81.1677 128.022C81.1056 127.443 80.9525 126.952 80.7083 126.551Z" fill="var(--fill-0, white)"/>
<path id="&#60;Path&#62;_8" d="M78.8582 23.1694C79.2679 22.9873 79.5742 22.6996 79.777 22.3064C79.9839 21.9132 80.1122 21.4331 80.1619 20.8661C80.2157 20.2908 80.1785 19.7921 80.0501 19.3699C79.9218 18.9436 79.6735 18.6001 79.3051 18.3393C78.9368 18.0786 78.4194 17.9192 77.7531 17.8612L76.6542 17.7557L76.1451 23.2501L77.2502 23.3494C77.9124 23.4115 78.4484 23.3515 78.8582 23.1694Z" fill="var(--fill-0, white)"/>
<path id="&#60;Path&#62;_9" d="M65.7401 22.4493C65.9843 22.8467 66.3009 23.1385 66.69 23.3247C67.0832 23.511 67.526 23.5792 68.0186 23.5296C68.5028 23.4799 68.9208 23.3227 69.2726 23.0578C69.6203 22.797 69.8728 22.4452 70.03 22.0023C70.1915 21.5636 70.2411 21.0545 70.179 20.4751C70.1211 19.8915 69.968 19.401 69.7196 19.0037C69.4754 18.6022 69.1568 18.3084 68.7636 18.1221C68.3662 17.94 67.9254 17.8738 67.4412 17.9235C66.9487 17.9731 66.5306 18.1283 66.1871 18.3891C65.8394 18.654 65.587 19.0058 65.4297 19.4445C65.2683 19.8832 65.2186 20.3944 65.2807 20.978C65.3386 21.5574 65.4918 22.0479 65.7401 22.4493Z" fill="var(--fill-0, white)"/>
<path id="&#60;Path&#62;_10" d="M115.221 36.1511C114.885 35.7869 114.511 35.5427 114.097 35.4185C113.679 35.2985 113.246 35.3047 112.799 35.4371C112.348 35.5737 111.907 35.8386 111.477 36.2318C111.046 36.625 110.742 37.0389 110.564 37.4734C110.39 37.908 110.345 38.3385 110.428 38.7648C110.51 39.187 110.719 39.5822 111.055 39.9506C111.382 40.3107 111.754 40.5528 112.172 40.6769C112.59 40.8011 113.025 40.797 113.476 40.6645C113.923 40.528 114.364 40.2631 114.798 39.8699C115.229 39.4767 115.531 39.0628 115.705 38.6282C115.879 38.1936 115.924 37.7632 115.841 37.3369C115.754 36.9064 115.548 36.5112 115.221 36.1511Z" fill="var(--fill-0, white)"/>
<path id="&#60;Compound Path&#62;" fill-rule="evenodd" clip-rule="evenodd" d="M149 74.5C149 115.643 115.643 149 74.5 149C33.3574 149 0 115.643 0 74.5C0 33.3574 33.3574 0 74.5 0C115.643 0 149 33.3574 149 74.5ZM107.317 28.9867L103.245 34.2948L104.294 35.1019L108.366 29.7876L110.179 31.1845L110.837 30.3277L106.163 26.7393L105.504 27.596L107.317 28.9867ZM93.5409 28.5273L94.7268 29.1419L97.3032 24.1628L98.042 30.8616L99.2278 31.4763L102.804 24.5788L101.624 23.9642L99.0353 28.9495L98.3028 22.2445L97.117 21.6298L93.5409 28.5273ZM84.6072 23.7096C84.7438 24.3801 85.0376 24.9575 85.4888 25.4418C85.944 25.9219 86.5359 26.2695 87.2643 26.4848C87.9886 26.7 88.6736 26.7248 89.3193 26.5592C89.965 26.3978 90.5279 26.0729 91.008 25.5845C91.4839 25.1003 91.8337 24.4732 92.0572 23.7034C92.2807 22.946 92.3241 22.232 92.1875 21.5615C92.0468 20.891 91.7488 20.3137 91.2935 19.8294C90.8424 19.341 90.2547 18.9892 89.5304 18.774C88.7978 18.5588 88.1107 18.536 87.4692 18.7057C86.8236 18.8713 86.2627 19.1982 85.7867 19.6866C85.3066 20.175 84.9548 20.7979 84.7313 21.5553C84.5078 22.321 84.4665 23.0391 84.6072 23.7096ZM74.7111 24.256L77.213 24.4857C78.1112 24.5684 78.8665 24.4774 79.4791 24.2125C80.0958 23.9518 80.5718 23.5441 80.907 22.9895C81.2464 22.439 81.4513 21.7726 81.5216 20.9904C81.5961 20.1957 81.5175 19.4962 81.2857 18.892C81.0581 18.2877 80.6649 17.8014 80.1061 17.433C79.5515 17.0605 78.8252 16.8329 77.927 16.7501L75.4313 16.5142L74.7111 24.256ZM63.9272 21.1207C64.01 21.9154 64.2418 22.5963 64.6226 23.1633C65.0033 23.7303 65.4958 24.1525 66.1001 24.4298C66.7002 24.7071 67.379 24.8064 68.1365 24.7278C68.8856 24.6491 69.5292 24.4132 70.0672 24.02C70.6012 23.6268 70.9985 23.1136 71.2593 22.4804C71.5159 21.8471 71.6028 21.1332 71.52 20.3385C71.4414 19.5521 71.2117 18.8754 70.8309 18.3084C70.446 17.7413 69.9514 17.3171 69.3471 17.0357C68.7428 16.7584 68.0661 16.657 67.317 16.7315C66.5554 16.8101 65.9097 17.0481 65.38 17.4454C64.846 17.8428 64.4508 18.358 64.1942 18.9913C63.9334 19.6245 63.8444 20.3344 63.9272 21.1207ZM58.2466 18.5381L60.1712 26.0626L61.4625 25.7335L59.5379 18.209L58.2466 18.5381ZM48.8596 26.1557C49.1659 26.8924 49.5756 27.476 50.0888 27.9065C50.5979 28.341 51.1691 28.6059 51.8023 28.7011C52.4356 28.7922 53.0895 28.697 53.7642 28.4155C54.1408 28.2583 54.4492 28.0782 54.6892 27.8754C54.9293 27.6767 55.1176 27.4491 55.2542 27.1925C55.3866 26.94 55.4839 26.6648 55.546 26.3668L56.0488 27.3167L57.1849 26.8386L55.5397 22.915L52.448 24.2125L52.8391 25.1438L54.6892 24.3677C54.8796 24.9927 54.8837 25.5659 54.7016 26.0874C54.5195 26.6048 54.0932 27.0042 53.4227 27.2856C52.9716 27.4719 52.537 27.536 52.119 27.4781C51.7009 27.416 51.3181 27.2297 50.9704 26.9193C50.6228 26.6048 50.3372 26.1785 50.1137 25.6404C49.886 25.1024 49.7805 24.5995 49.797 24.1318C49.8136 23.6641 49.9523 23.2523 50.213 22.8963C50.4696 22.5445 50.8421 22.2652 51.3305 22.0582C51.8065 21.8595 52.2328 21.7975 52.6094 21.872C52.9902 21.9423 53.3068 22.1348 53.5593 22.4493L54.9375 21.8658C54.4864 21.2242 53.9008 20.8207 53.1806 20.6551C52.4604 20.4854 51.6844 20.5765 50.8525 20.9283C50.1199 21.2346 49.5529 21.6588 49.1514 22.201C48.7499 22.7391 48.5243 23.3516 48.4747 24.0387C48.425 24.7216 48.5533 25.4273 48.8596 26.1557ZM42.6637 25.2865L46.6867 31.9357L47.8228 31.2465L43.806 24.5974L42.6637 25.2865ZM34.2079 31.557L39.1063 37.5853L41.0557 36.0021C41.7552 35.431 42.2332 34.837 42.4898 34.2203C42.7464 33.5995 42.8003 32.9745 42.6513 32.3454C42.5064 31.7163 42.1856 31.0975 41.689 30.4891C41.1881 29.8683 40.6439 29.4234 40.0562 29.1543C39.4684 28.8812 38.8455 28.8067 38.1875 28.9308C37.5294 29.055 36.8506 29.4027 36.1511 29.9738L34.2079 31.557ZM29.7317 74.5124C29.7317 72.3147 27.9499 70.5329 25.7522 70.5329C23.5482 70.5329 21.7664 72.3147 21.7664 74.5124C21.7664 76.7164 23.5482 78.4982 25.7522 78.4982C27.9499 78.4982 29.7317 76.7164 29.7317 74.5124ZM34.003 114.829C34.6653 114.66 35.2882 114.308 35.8717 113.774C36.4636 113.236 36.8734 112.646 37.101 112.005C37.3328 111.359 37.3804 110.711 37.2438 110.061C37.1072 109.416 36.7823 108.811 36.2691 108.248C35.76 107.69 35.1888 107.311 34.5556 107.112C33.9223 106.918 33.2746 106.905 32.6124 107.075C31.946 107.241 31.319 107.592 30.7313 108.131C30.1477 108.664 29.74 109.254 29.5082 109.9C29.2806 110.546 29.233 111.193 29.3654 111.843C29.502 112.497 29.8248 113.103 30.3339 113.662C30.8471 114.225 31.4204 114.602 32.0536 114.792C32.691 114.982 33.3408 114.995 34.003 114.829ZM39.1187 120.02L43.1914 114.711L42.1422 113.904L38.0695 119.212L36.2567 117.822L35.6048 118.678L40.2797 122.267L40.9315 121.41L39.1187 120.02ZM52.895 120.479L51.7154 119.864L49.1328 124.837L48.394 118.145L47.2082 117.53L43.6322 124.427L44.818 125.036L47.4006 120.057L48.1332 126.762L49.319 127.376L52.895 120.479ZM61.835 125.297C61.6943 124.626 61.3983 124.049 60.9472 123.564C60.4919 123.08 59.9001 122.733 59.1716 122.521C58.4473 122.306 57.7623 122.279 57.1167 122.441C56.471 122.602 55.9102 122.927 55.4342 123.415C54.9541 123.904 54.6023 124.531 54.3788 125.297C54.1553 126.058 54.1118 126.774 54.2484 127.445C54.3891 128.111 54.6871 128.688 55.1424 129.177C55.5977 129.665 56.1875 130.015 56.9118 130.226C57.6402 130.441 58.3252 130.466 58.9667 130.301C59.6124 130.135 60.1732 129.808 60.6492 129.32C61.1293 128.831 61.4811 128.208 61.7046 127.451C61.9281 126.681 61.9716 125.963 61.835 125.297ZM71.7249 124.75L69.2291 124.521C68.331 124.438 67.5736 124.527 66.9569 124.788C66.3402 125.052 65.8642 125.46 65.529 126.011C65.1937 126.565 64.9888 127.232 64.9143 128.01C64.8398 128.808 64.9185 129.51 65.1503 130.114C65.3779 130.719 65.7711 131.205 66.3299 131.573C66.8845 131.946 67.6129 132.173 68.5152 132.256L71.0109 132.486L71.7249 124.75ZM79.0507 98.0792C91.4053 97.9364 101.475 88.2825 102.289 76.0955C102.322 75.574 102.338 75.0463 102.338 74.5124C102.338 73.9827 102.322 73.457 102.289 72.9355C101.897 67.0562 99.3519 61.7667 95.4345 57.8555C91.2314 53.6462 85.4453 51.0263 79.0507 50.9518V50.9332H47.3261C46.8978 50.9332 46.5749 51.3243 46.6618 51.7402L51.1443 74.4379C51.1525 74.4835 51.1525 74.529 51.1443 74.5745L46.6618 97.2659C46.5749 97.6881 46.8978 98.0792 47.3261 98.0792H79.0507ZM82.5026 127.892C82.4239 127.097 82.1921 126.416 81.8072 125.849C81.4264 125.282 80.936 124.86 80.3358 124.583C79.7357 124.305 79.0569 124.206 78.2995 124.285C77.5462 124.363 76.9026 124.599 76.3687 124.992C75.8307 125.386 75.4333 125.899 75.1767 126.532C74.916 127.165 74.827 127.879 74.9097 128.674C74.9884 129.46 75.2202 130.137 75.6051 130.704C75.9859 131.271 76.4784 131.693 77.0827 131.971C77.6911 132.252 78.3699 132.353 79.119 132.275C79.8764 132.2 80.5221 131.964 81.056 131.567C81.5858 131.17 81.979 130.654 82.2356 130.021C82.4963 129.388 82.5853 128.678 82.5026 127.892ZM88.1894 130.474L86.2586 122.95L84.9672 123.279L86.898 130.803L88.1894 130.474ZM97.5764 122.857C97.2659 122.12 96.8562 121.536 96.3471 121.106C95.8339 120.671 95.2607 120.406 94.6274 120.311C93.9942 120.22 93.3402 120.315 92.6656 120.597C92.289 120.754 91.9806 120.934 91.7406 121.137C91.5005 121.336 91.3142 121.561 91.1818 121.814C91.0452 122.07 90.948 122.348 90.89 122.646L90.3809 121.702L89.251 122.174L90.8962 126.097L93.9818 124.8L93.5906 123.869L91.7406 124.645C91.5502 124.02 91.546 123.447 91.7281 122.925C91.9144 122.408 92.3407 122.008 93.007 121.727C93.4582 121.541 93.8927 121.476 94.3108 121.534C94.7288 121.596 95.1117 121.783 95.4593 122.093C95.807 122.408 96.0947 122.834 96.3223 123.372C96.5499 123.91 96.6555 124.413 96.6389 124.881C96.6223 125.348 96.4837 125.76 96.223 126.116C95.9622 126.468 95.5897 126.745 95.1055 126.948C94.6295 127.151 94.2011 127.215 93.8203 127.14C93.4396 127.07 93.1229 126.878 92.8705 126.563L91.4922 127.147C91.9475 127.788 92.5352 128.192 93.2554 128.357C93.9756 128.527 94.7516 128.436 95.5835 128.084C96.312 127.778 96.8769 127.354 97.2784 126.811C97.6798 126.269 97.9054 125.657 97.9551 124.974C98.0089 124.291 97.8826 123.585 97.5764 122.857ZM103.766 123.726L99.7493 117.083L98.607 117.766L102.624 124.415L103.766 123.726ZM112.228 117.455L107.323 111.433L105.374 113.016C104.675 113.584 104.199 114.175 103.946 114.792C103.69 115.413 103.634 116.038 103.778 116.667C103.923 117.296 104.244 117.915 104.741 118.523C105.246 119.144 105.792 119.591 106.38 119.864C106.967 120.133 107.588 120.206 108.242 120.082C108.9 119.957 109.579 119.61 110.279 119.039L112.228 117.455ZM117.071 37.1693C116.934 36.5153 116.611 35.909 116.102 35.3503C115.589 34.7874 115.016 34.4107 114.382 34.2203C113.745 34.0299 113.095 34.0175 112.433 34.1831C111.771 34.3528 111.148 34.7046 110.564 35.2385C109.972 35.7766 109.563 36.3663 109.335 37.0079C109.107 37.6535 109.06 38.3013 109.192 38.9511C109.329 39.5967 109.654 40.201 110.167 40.7639C110.676 41.3227 111.247 41.7014 111.88 41.9C112.518 42.0946 113.168 42.107 113.83 41.9373C114.492 41.7717 115.119 41.4199 115.711 40.8819C116.295 40.348 116.7 39.7582 116.928 39.1125C117.155 38.471 117.203 37.8232 117.071 37.1693ZM127.227 74.5186C127.227 72.3147 125.446 70.5329 123.242 70.5329C121.044 70.5329 119.262 72.3147 119.262 74.5186C119.262 76.7164 121.044 78.4982 123.242 78.4982C125.446 78.4982 127.227 76.7164 127.227 74.5186Z" fill="var(--fill-0, white)"/>
<path id="&#60;Path&#62;_11" d="M106.15 113.842C105.633 114.264 105.291 114.682 105.126 115.096C104.956 115.514 104.937 115.934 105.07 116.357C105.198 116.783 105.442 117.215 105.802 117.654C106.167 118.101 106.543 118.432 106.932 118.647C107.321 118.863 107.739 118.933 108.186 118.859C108.633 118.788 109.113 118.542 109.627 118.12L110.49 117.418L107.007 113.141L106.15 113.842Z" fill="var(--fill-0, white)"/>
</g>
</svg>
